<svg width="18" height="12" viewBox="0 0 18 12" fill="none" xmlns="http://www.w3.org/2000/svg">
<path d="M4.47204 0.467309C4.76624 0.175726 5.24111 0.177844 5.53269 0.472041C5.82427 0.766238 5.82216 1.24111 5.52796 1.53269L3.76499 3.28C3.0495 3.98914 2.55869 4.47718 2.22659 4.89071C2.11867 5.02509 2.03446 5.1434 1.96908 5.25L17 5.25C17.4142 5.25 17.75 5.58579 17.75 6C17.75 6.41422 17.4142 6.75 17 6.75L1.96908 6.75C2.03446 6.8566 2.11867 6.97491 2.22659 7.10929C2.55869 7.52282 3.0495 8.01086 3.76499 8.72L5.52796 10.4673C5.82216 10.7589 5.82427 11.2338 5.53269 11.528C5.24111 11.8222 4.76624 11.8243 4.47204 11.5327L2.6773 9.7539C2.00133 9.08395 1.44886 8.53641 1.05706 8.04854C0.649628 7.54121 0.354694 7.02628 0.275909 6.40816C0.258636 6.27265 0.25 6.13632 0.25 6C0.25 5.86368 0.258636 5.72735 0.275909 5.59184C0.354694 4.97372 0.649628 4.45878 1.05706 3.95146C1.44886 3.46358 2.00134 2.91604 2.67732 2.24609L4.47204 0.467309Z" fill="#0F0F0F"/>
</svg>
