<svg width="16" height="14" viewBox="0 0 16 14" fill="none" xmlns="http://www.w3.org/2000/svg">
<path d="M1 0.25C0.585786 0.25 0.25 0.585786 0.25 1C0.25 1.41421 0.585786 1.75 1 1.75H15C15.4142 1.75 15.75 1.41421 15.75 1C15.75 0.585786 15.4142 0.25 15 0.25H1Z" fill="#0F0F0F"/>
<path d="M1 6.25C0.585786 6.25 0.25 6.58579 0.25 7C0.25 7.41421 0.585786 7.75 1 7.75H7C7.41421 7.75 7.75 7.41421 7.75 7C7.75 6.58579 7.41421 6.25 7 6.25H1Z" fill="#0F0F0F"/>
<path d="M1 12.25C0.585786 12.25 0.25 12.5858 0.25 13C0.25 13.4142 0.585786 13.75 1 13.75H4C4.41421 13.75 4.75 13.4142 4.75 13C4.75 12.5858 4.41421 12.25 4 12.25H1Z" fill="#0F0F0F"/>
</svg>
