<svg width="24" height="24" viewBox="0 0 24 24" fill="none" xmlns="http://www.w3.org/2000/svg">
<rect x="0.25" y="0.25" width="23.5" height="23.5" stroke="black" stroke-width="0.5"/>
<path d="M20.5761 7.48016C20.8413 7.16195 20.7983 6.68903 20.4801 6.42385C20.1619 6.15868 19.689 6.20167 19.4238 6.51988L14.0331 12.9887C12.9503 14.2881 12.1886 15.1994 11.5279 15.796C10.8826 16.3787 10.4372 16.5639 9.99998 16.5639C9.56272 16.5639 9.11738 16.3787 8.47209 15.796C7.81139 15.1994 7.04966 14.2881 5.96682 12.9887L4.57615 11.3199C4.31097 11.0017 3.83805 10.9587 3.51984 11.2239C3.20163 11.489 3.15864 11.9619 3.42381 12.2802L4.85308 13.9953C5.88835 15.2376 6.71744 16.2326 7.4668 16.9092C8.24086 17.6082 9.03212 18.0639 9.99998 18.0639C10.9678 18.0639 11.7591 17.6082 12.5332 16.9092C13.2825 16.2326 14.1116 15.2377 15.1468 13.9953L20.5761 7.48016Z" fill="#0F0F0F"/>
</svg>
